<svg width="644" height="561" viewBox="0 0 644 561" fill="none" xmlns="http://www.w3.org/2000/svg">
<path opacity="0.7" d="M144.418 172.868L357.879 508.463L572.193 172.868H144.418Z" stroke="#2B2B39" stroke-linecap="round" stroke-linejoin="round" stroke-dasharray="3 3"/>
<circle cx="541.635" cy="179.633" r="96.4193" fill="white"/>
<circle cx="541.635" cy="179.633" r="95.4193" stroke="#FFAF2E" stroke-opacity="0.6" stroke-width="2"/>
<mask id="mask0_13_743" style="mask-type:alpha" maskUnits="userSpaceOnUse" x="366" y="49" width="278" height="272">
<path d="M638.055 179.633C638.055 126.382 594.887 49.0003 541.636 49.0003C492.163 49.0003 451.393 115.79 445.857 167.969C396.732 161.749 330.914 137.644 390.787 182.743C414.538 200.634 429.155 226.547 457.671 227.065C474.229 256.313 505.627 276.052 541.636 276.052C568.135 276.052 592.137 265.362 609.566 248.06L604.991 291.234C604.991 374.435 660.847 259.257 638.055 179.633Z" fill="#C4C4C4"/>
</mask>
<g mask="url(#mask0_13_743)">
<path d="M537.097 130.976C511.151 151.971 513.796 196.609 512.229 220.905C511.128 237.902 507.68 262.261 505.49 276.201L554.103 283.462V198.005C554.103 169.519 556.057 134.51 563.717 126.969C558.382 126.37 553.67 126.523 550.441 126.969C547.88 126.949 544.673 127.387 541.163 128.828C539.619 129.757 538.484 130.173 537.097 130.976Z" fill="white"/>
<path opacity="0.5" d="M537.097 130.975C511.151 151.971 513.796 196.608 512.229 220.905C511.128 237.902 507.68 262.26 505.49 276.2C523.977 283.101 532.079 284.745 554.103 283.461V198.004C554.103 175.984 555.271 150.065 559.342 135.951C554.962 143.073 548.891 177.451 549.817 198.004C550.744 218.557 550.126 258.595 544.258 269.744C538.383 280.894 508.107 272.532 510.887 263.86C513.667 255.188 513.667 227.005 516.138 194.486C518.115 168.47 530.936 141.305 537.097 130.975Z" fill="#FFB83B"/>
<path d="M544.26 269.745C538.385 280.895 508.109 272.532 510.889 263.861C517.993 275.01 534.987 271.603 537.767 267.267C540.547 262.932 544.877 252.091 544.877 233.819C544.877 219.2 548.584 191.182 550.437 179.001C549.831 185.807 549.567 192.416 549.819 198.005C550.746 218.557 550.128 258.596 544.26 269.745Z" fill="#FFF9EF"/>
<path d="M516.137 194.486C517.687 174.158 525.847 153.129 532.283 139.977C528.65 147.926 521.456 168.471 521.703 187.053C521.95 205.635 516.424 228.863 513.627 238.155C514.284 225.953 514.902 210.763 516.137 194.486Z" fill="#FFF9EF"/>
<path d="M500.689 310.007L489.873 308.459C491.524 296.996 502.975 241.003 507.721 204.149C508.754 196.109 509.827 187.697 510.916 179.014C515.123 145.386 529.685 135.471 541.159 128.828C515.213 149.824 513.792 196.609 512.225 220.905C511.124 237.903 507.676 262.261 505.486 276.201C505.171 278.202 500.942 308.488 500.689 310.007Z" fill="#FFAF2E"/>
<path d="M507.721 204.148C508.754 196.108 509.827 187.696 510.916 179.014C510.596 189.539 509.827 206.835 507.721 224.527C503.761 257.805 499.454 288.017 489.873 308.458C491.524 296.995 502.975 241.003 507.721 204.148Z" fill="#F3A00D"/>
<path d="M604.502 309.078C599.251 285.85 591.523 194.486 591.523 194.486C591.523 194.486 597.752 162.246 587.508 146.481C580.96 136.397 563.718 126.969 563.718 126.969C556.058 134.51 554.103 169.519 554.103 198.005V283.461V313.104C567.425 315.891 589.67 317.131 604.502 309.078Z" fill="#FFAF2E"/>
<path d="M557.995 141.526C555.007 156.24 554.103 178.631 554.103 198.005V270.984C555.401 260.247 557.72 232.084 556.614 205.326C555.507 178.566 557.074 151.642 557.995 141.526Z" fill="#F9A319"/>
<path d="M604.502 309.078C599.251 285.85 591.523 194.486 591.523 194.486C591.523 194.486 597.752 162.246 587.508 146.481C587.508 163.205 579.477 185.814 584.11 208.422C590.344 238.827 595.539 266.648 589.67 287.708C584.975 304.556 563.999 311.659 554.103 313.104C567.425 315.891 589.67 317.13 604.502 309.078Z" fill="#F9A319"/>
<path d="M638.793 218.024C640.646 198.822 622.113 170.638 601.103 149.578C591.758 140.211 572.68 129.138 563.716 126.969L591.522 194.486C591.522 194.486 600.159 204.149 611.15 220.905C614.553 213.365 628.908 208.423 638.793 218.024Z" fill="#FFAF2E"/>
<path d="M638.794 218.024C640.647 198.821 622.108 170.638 601.104 149.578C596.224 144.688 588.692 139.332 581.33 135.021C583.7 139.151 588.805 148.587 590.287 153.294C592.141 159.179 631.998 182.701 628.6 212.906C632.122 213.416 635.677 214.998 638.794 218.024Z" fill="#F9A319"/>
<path d="M607.844 212.902C608.428 207.055 613.92 203.645 617.812 202.67C626.562 200.477 635.307 203.157 639.681 209.736C643.5 215.472 639.199 223.867 635.307 227.034C636.037 216.07 631.909 212.172 622.912 213.634C613.92 215.095 611.247 220.699 610.764 225.572C608.574 223.867 607.114 220.212 607.844 212.902Z" fill="#F9A319"/>
<path d="M622.91 213.634C613.919 215.096 611.246 220.699 610.757 225.572C611.572 235.724 613.043 259.584 612.459 273.812C611.734 291.598 610.757 297.689 607.601 305.485C604.439 313.281 608.618 321.38 614.694 319.918C620.771 318.456 625.73 311.332 624.275 305.485C622.815 299.638 624.275 293.79 626.701 289.649C629.133 285.507 635.305 249.936 635.305 227.034C636.035 216.07 631.902 212.172 622.91 213.634Z" fill="#FFD0B7"/>
<path d="M510.919 179.014C515.126 145.386 529.688 135.471 541.162 128.828C531.57 134.008 509.942 139.977 494.166 168.123C480.766 192.028 470.584 198.324 466.4 199.441C471.455 204.189 480.21 218.465 479.373 227.624C484.815 223.603 500.411 210.107 507.723 204.149C508.757 196.109 509.83 187.696 510.919 179.014Z" fill="#FFAF2E"/>
<path d="M507.722 204.148C508.755 196.108 509.828 187.696 510.917 179.014C507.935 194.204 496.675 203.157 490.497 205.325C485.549 207.059 480.573 216.578 478.709 221.121C479.287 223.429 479.551 225.646 479.371 227.625C484.813 223.603 500.409 210.106 507.722 204.148Z" fill="#F9A319"/>
<path d="M474.629 214.327C471.17 203.485 466.093 200.112 463.925 199.751C464.65 199.028 466.57 197.358 468.951 196.708C471.922 195.895 480.307 196.708 484.093 202.943C487.299 208.222 490.854 216.767 484.093 225.17C478.684 231.892 467.059 231.223 461.92 230.049C467.598 229.326 477.746 224.085 474.629 214.327Z" fill="#F9A319"/>
<path d="M461.919 230.049C467.597 229.326 477.745 224.085 474.628 214.327C472.14 206.529 468.871 200.99 463.924 199.75C462.755 200.188 460.458 201.153 451.372 197.25C440.016 192.371 402.97 175.293 400.266 172.854C397.561 170.415 391.613 162.011 383.23 162.282C374.848 162.554 377.822 178.004 387.827 180.715C397.832 183.426 406.215 190.744 411.082 196.166C415.949 201.587 442.178 227.88 461.919 230.049Z" fill="#FFD0B7"/>
<path d="M540.902 128.839V112.026L563.715 100.954V126.969C553.544 145.974 539.976 141.137 540.902 128.839Z" fill="#FFD0B7"/>
<path d="M543.425 110.803L563.716 100.954V126.969C563.699 127.007 563.677 127.044 563.66 127.082C562.638 128.975 561.588 130.629 560.515 132.061C556.741 126.364 546.761 117.524 540.903 113.109V112.236L543.425 110.803Z" fill="url(#paint0_linear_13_743)"/>
<path d="M529.58 69.6436C529.58 79.5115 534.516 80.7118 538.15 80.191L560.367 104.411C560.626 104.932 563.114 107.079 563.114 112.146C563.114 117.284 567.146 106.62 570.134 104.411C576.323 99.838 580.529 99.7023 582.489 92.16C584.174 85.6857 581.798 81.1025 579.85 80.191C578.681 79.6703 577.435 78.5505 575.565 78.238C573.694 77.925 573.223 74.7222 573.223 73.1594C573.093 71.9878 572.588 70.358 569.606 68.4714C567.753 67.2999 562.962 66.7785 561.142 68.4714C559.974 69.1228 557.323 69.8001 556.077 67.2999C554.83 64.7997 552.179 65.737 551.011 66.5179C547.585 67.7677 539.638 64.0965 536.549 54.4954C532.843 59.4508 529.58 62.8574 529.58 69.6436Z" fill="#2B2B39"/>
<path d="M579.851 80.1912C578.683 79.6699 577.436 78.5501 575.566 78.2377C585.203 85.427 577.436 96.9456 571.258 100.042C566.316 102.519 563.772 109.143 563.115 112.146C563.115 117.284 567.147 106.62 570.135 104.411C576.324 99.8376 580.53 99.7019 582.49 92.1602C584.175 85.6859 581.8 81.1021 579.851 80.1912Z" fill="#13131C"/>
<path d="M551.013 66.5179C547.587 67.7677 539.641 64.096 536.552 54.4954C536.608 60.2705 539.416 71.3855 550.199 69.6436C551.884 69.0778 553.849 67.9518 556.096 70.2038C558.342 72.4557 564.026 67.2993 569.608 68.4715C567.755 67.2993 562.964 66.778 561.145 68.4715C559.977 69.1223 557.326 69.7995 556.079 67.2993C554.832 64.7991 552.187 65.7365 551.013 66.5179Z" fill="#13131C"/>
<path d="M549.458 113.005C558.5 110.193 562.055 103.76 562.706 100.895C562.97 99.7234 563.616 96.4682 563.487 95.036C562.549 92.2233 559.719 96.2075 558.421 98.5518C556.686 101.677 556.372 90.7387 558.421 88.0043C561.224 84.2537 556.86 83.2606 554.911 82.1448C554.002 81.6235 551.486 80.7385 548.677 81.3634C545.869 81.9883 544.392 80.3213 543.999 79.4098C542.96 77.7175 540.259 75.3474 537.765 79.4098C531.84 88.4733 532.958 100.375 534.261 105.193C535.558 108.969 540.416 115.818 549.458 113.005Z" fill="#FFD0B7"/>
</g>
<g filter="url(#filter0_d_13_743)">
<circle cx="155.659" cy="173.022" r="97.659" fill="white"/>
<circle cx="155.659" cy="173.022" r="96.659" stroke="#217BF4" stroke-opacity="0.6" stroke-width="2"/>
</g>
<mask id="mask1_13_743" style="mask-type:alpha" maskUnits="userSpaceOnUse" x="58" y="49" width="220" height="246">
<path d="M58 173.45C58 119.514 101.723 49.0869 155.659 49.0869C285.668 45.4247 282.056 158.445 274.681 215.412H243.868C228.172 248.348 194.574 271.109 155.659 271.109C142.708 271.109 130.346 268.588 119.037 264.01C118.269 263.699 117.506 263.379 116.748 263.049C114.205 269.296 109.271 283.774 109.881 291.708C97.674 301.627 67.7536 282.4 70.2006 220.753C62.4267 206.739 58 190.611 58 173.45Z" fill="#C4C4C4"/>
</mask>
<g mask="url(#mask1_13_743)">
<path d="M267.623 197.488C261.649 199.325 254.24 201.921 248.742 200.566C244.335 199.48 244.666 198.068 244.168 195.106C245.565 192.702 251.469 188.082 262.899 185.725C277.185 182.778 278.128 194.256 267.623 197.488Z" fill="#FEBE9D"/>
<path d="M202.666 154.191C200.906 149.855 196.068 149.133 193.869 149.313C177.845 155.816 187.585 202.693 191.355 208.925C195.125 215.158 199.524 217.596 203.923 219.493C208.321 221.39 217.119 220.306 219.318 218.951C221.518 217.596 222.146 216.241 224.659 215.97C227.173 215.699 231.258 214.887 232.828 213.261C234.399 211.635 235.656 210.009 239.427 210.009C243.197 210.009 246.339 207.3 247.595 205.674C248.852 204.048 249.795 203.777 251.994 203.235C254.194 202.693 256.393 202.693 257.021 199.984C257.65 197.274 257.964 191.855 257.65 189.145C257.335 186.435 257.335 186.435 255.764 186.707C254.194 186.978 250.109 189.145 248.852 189.145C247.595 189.145 245.396 188.874 243.197 189.687C240.997 190.5 233.771 193.481 229.058 194.835C224.345 196.19 217.433 196.461 218.061 194.565C218.69 192.668 220.889 187.249 216.49 187.249C212.092 187.249 212.092 184.268 210.207 178.036C208.321 171.804 204.865 159.61 202.666 154.191Z" fill="#217BF4"/>
<path d="M249.168 201.069C250.529 200.978 253.629 200.419 255.137 198.901M250.424 192.127C251.367 191.314 253.818 189.688 256.08 189.688L250.424 192.127ZM252.624 193.482L255.137 192.398L252.624 193.482ZM249.482 197.276C250.948 197.095 254.258 196.408 255.766 195.108L249.482 197.276Z" stroke="#2068D9" stroke-width="1.07894"/>
<path d="M250.02 203.797C249.446 201.636 248.874 198.263 249.481 195.648C248.852 197.545 247.03 201.989 244.768 204.59C241.94 207.842 238.484 207.571 237.856 204.861C237.227 202.152 233.457 203.777 232.2 207.029C230.944 210.28 228.116 214.345 223.403 214.616C218.988 214.869 216.779 215.837 215.484 216.403C215.397 216.442 215.313 216.478 215.234 216.512C213.977 217.054 214.291 214.887 215.548 213.532C216.805 212.177 218.376 208.655 218.061 206.758C216.491 209.738 213.349 213.803 208.322 215.158C203.294 216.512 200.467 213.261 204.237 210.28C208.007 207.3 210.835 204.59 211.777 202.152C212.134 201.23 211.637 201.547 210.644 202.181C209.01 203.224 206.031 205.125 203.294 203.777C198.896 201.61 199.524 195.378 202.98 194.293C204.084 193.947 205.734 193.85 207.509 193.745C211.289 193.522 215.635 193.266 216.491 190.5C214.606 191.584 203.609 193.21 203.294 186.436C202.98 179.662 202.352 175.055 200.781 171.262C200.259 170.002 200.014 168.353 199.76 166.634C199.247 163.176 198.691 159.432 195.754 157.984C194.915 157.571 191.447 157.729 186.709 158.563C181.829 174.422 188.412 204.061 191.355 208.926C195.125 215.158 199.524 217.597 203.923 219.494C208.321 221.39 217.119 220.306 219.318 218.952C220.037 218.509 220.589 218.066 221.092 217.661C222.13 216.827 222.968 216.153 224.659 215.971C227.173 215.7 231.258 214.887 232.828 213.262C232.941 213.145 233.052 213.028 233.163 212.912C234.593 211.411 235.927 210.01 239.427 210.01C243.197 210.01 246.339 207.3 247.595 205.675C248.396 204.639 249.069 204.153 250.02 203.797Z" fill="#1771EA"/>
<path d="M194.4 213.06C195.962 211.3 198.614 208.826 201.095 208.112C204.866 207.028 202.98 206.487 199.838 207.57C196.697 208.654 196.068 207.841 195.754 204.319C195.44 200.796 196.697 194.564 198.582 190.228C200.467 185.893 202.98 172.345 197.639 167.197C195.182 164.829 190 165.097 185.149 167.53C183.936 183.672 188.906 204.876 191.355 208.925C192.332 210.539 193.35 211.898 194.4 213.06Z" fill="#2068D9"/>
<path d="M246.967 201.34C249.732 198.088 249.376 192.217 248.852 189.688C249.69 191.856 250.863 196.95 248.852 199.985C246.339 203.779 246.339 202.153 246.967 201.34Z" fill="#3881F2"/>
<path d="M171.249 279.647C180.548 275.962 192.928 277.75 197.955 279.105C198.583 279.267 199.212 279.105 200.468 275.312C201.725 271.519 200.783 262.035 200.468 261.222C200.154 260.409 200.154 259.867 200.468 258.512C202.039 249.57 196.07 228.165 193.556 216.242C191.042 204.32 194.499 193.21 197.955 185.081C201.411 176.952 198.583 166.385 197.64 155.546C196.698 144.708 186.016 143.895 171.563 140.914C157.11 137.934 138.572 137.934 130.403 155.817C122.234 173.701 129.775 197.004 130.403 210.281C131.031 223.558 124.748 234.939 120.663 246.59C116.579 258.241 117.522 266.912 116.264 274.499C115.259 280.569 117.312 283.17 118.464 283.712C118.569 285.067 118.778 288.698 118.778 292.383C118.778 296.989 120.663 299.428 125.376 299.157C130.089 298.886 137.63 296.176 144.228 291.841C150.826 287.506 159.623 284.253 171.249 279.647Z" fill="#217BF4"/>
<path d="M171.563 228.435C163.017 234.938 152.502 233.674 148.313 232.228C148.313 233.403 150.324 236.347 158.367 238.732C168.421 241.712 175.333 234.938 178.161 229.519C180.423 225.183 185.387 219.042 187.587 216.513C185.806 217.777 180.109 221.932 171.563 228.435Z" fill="#3881F2"/>
<path d="M197.955 279.105C192.928 277.75 180.548 275.962 171.248 279.647C169.972 280.152 168.73 280.642 167.521 281.118C157.718 284.98 150.102 287.981 144.228 291.841C137.63 296.176 130.089 298.885 125.376 299.156C120.663 299.427 118.778 296.989 118.778 292.382C118.778 288.697 118.569 285.066 118.464 283.711C117.312 283.169 115.259 280.568 116.264 274.499C116.668 272.066 116.844 269.522 117.034 266.804C117.434 261.045 117.888 254.505 120.663 246.59C121.608 243.894 122.671 241.213 123.739 238.52C127.285 229.571 130.886 220.486 130.403 210.28C130.237 206.761 129.585 202.538 128.868 197.897C126.881 185.031 124.4 168.96 130.403 155.817C130.506 155.592 130.611 155.369 130.717 155.149C143.068 145.166 155.317 140.915 165.585 139.915C167.628 140.171 169.632 140.516 171.563 140.914C173.109 141.233 174.613 141.527 176.067 141.812C181.694 142.913 186.564 143.865 190.252 145.538C190.884 146.155 191.361 146.787 191.671 147.416C196.07 156.358 186.958 166.655 179.732 171.803C172.505 176.951 174.076 179.119 182.245 176.951C189.486 175.029 188.334 175.663 179.446 180.548C178.307 181.175 177.04 181.871 175.647 182.641C163.394 189.415 177.218 186.704 187.272 184.537C197.326 182.369 195.441 187.517 193.242 189.685C192.321 190.593 191.289 191.121 190.379 191.586C189.115 192.233 188.083 192.761 187.901 194.021C187.586 196.188 185.387 198.627 182.559 199.711C182.336 199.796 182.109 199.882 181.878 199.968C179.196 200.979 176.127 202.135 174.39 205.13C172.505 208.381 167.792 208.923 162.137 208.652C156.481 208.381 148.941 210.548 155.853 216.238C162.765 221.929 172.505 217.864 177.532 215.697C165.907 228.161 149.255 218.948 146.113 214.613C142.971 210.277 141.4 208.923 137.315 210.006C133.231 211.09 131.974 216.237 135.745 217.321C137.415 217.802 139.148 217.59 140.559 217.418C142.333 217.201 143.599 217.047 143.599 218.405C143.599 220.469 138.647 224.087 134.268 227.285C133.473 227.866 132.698 228.432 131.974 228.973C127.261 232.495 132.603 235.476 136.059 236.56C139.515 237.643 138.572 238.998 132.917 244.418C125.062 252.277 140.143 259.592 153.968 251.192C165.028 244.472 174.704 243.876 178.161 244.418C174.181 245.412 164.525 248.971 157.738 255.257C152.018 260.555 144.441 262.035 137.703 263.35C134.449 263.986 131.391 264.582 128.832 265.554C120.977 268.534 125.062 274.495 131.66 274.766C135.179 274.911 141.381 271.509 148.499 267.604C154.727 264.188 161.656 260.387 168.106 258.238C181.931 253.631 191.357 257.154 196.384 259.051C188.215 258.509 165.279 265.283 153.339 272.058C147.565 275.334 143.26 276.582 139.501 277.672C135.488 278.835 132.097 279.818 128.204 282.896C120.663 288.857 130.717 292.922 137.944 291.838C141.172 291.354 145.717 288.707 150.907 285.684C157.334 281.94 164.75 277.621 171.877 276.122C181.41 274.117 193.471 276.286 199.453 277.909C198.818 279.174 198.386 279.216 197.955 279.105Z" fill="#1771EA"/>
<path d="M129.997 205.735C131.297 204.14 133.17 201.716 134.174 199.985C135.744 197.275 136.687 196.191 138.886 198.088C141.086 199.985 144.542 199.714 146.427 197.546C146.39 197.696 146.353 197.843 146.316 197.989C145.422 201.548 144.801 204.018 151.14 203.237C153.458 202.951 156.784 203.334 160.001 203.705C165.942 204.389 171.512 205.032 169.678 201.34C166.849 195.65 164.964 181.831 170.62 176.953C175.144 173.052 178.998 167.56 180.36 165.302C182.873 160.154 182.622 150.128 161.508 151.212C153.127 151.642 143.986 149.859 135.432 148.136C133.501 150.223 131.8 152.758 130.403 155.817C124.399 168.96 126.881 185.03 128.868 197.897C129.298 200.68 129.704 203.314 129.997 205.735Z" fill="#2068D9"/>
<path d="M185.701 269.078C192.237 269.295 193.661 265.194 193.556 263.117C193.556 261.491 195.441 261.491 194.499 268.536C193.556 275.582 182.245 271.788 172.505 272.601C162.765 273.414 148.941 279.647 145.485 281.543C162.451 268.807 177.532 268.807 185.701 269.078Z" fill="#3881F2"/>
<path d="M192.925 260.137C193.658 262.937 194.999 270 194.496 275.853M123.489 285.336C123.489 287.323 123.677 292.11 124.431 295.362L123.489 285.336ZM131.029 281.814C131.762 284.253 133.166 289.672 132.915 291.839L131.029 281.814ZM136.056 279.104C136.58 281.001 137.627 286.258 137.627 292.11L136.056 279.104ZM142.34 279.646V286.691V279.646ZM147.367 275.853C147.996 277.479 149.064 281.489 148.31 284.524L147.367 275.853ZM152.394 272.872C152.918 274.679 153.966 278.996 153.966 281.814L152.394 272.872ZM158.678 271.246V278.291V271.246ZM164.648 267.724C165.172 270.072 165.905 275.636 164.648 279.104V267.724ZM169.047 266.369C169.78 267.905 171.12 271.788 170.618 275.04L169.047 266.369ZM176.587 265.014C176.587 267.363 176.587 272.276 176.587 273.143V265.014ZM180.672 262.846C180.986 265.014 181.614 270.271 181.614 273.956L180.672 262.846ZM189.155 266.098C189.26 268.266 189.281 273.089 188.527 275.04L189.155 266.098Z" stroke="#2068D9" stroke-width="1.07894"/>
<path d="M126.633 280.461C147.16 270.977 190.54 252.931 198.583 259.868" stroke="#3881F2" stroke-width="1.07894"/>
<path d="M116.264 274.498C115.259 280.568 117.312 283.169 118.464 283.711C118.514 284.357 118.588 285.521 118.651 286.962C121.521 284.614 127.89 279.592 130.403 278.291C125.691 279.647 119.467 282.356 118.651 276.395C117.836 270.434 120.977 264.201 122.862 260.95C124.748 257.698 127.002 247.944 124.619 236.293C123.264 239.738 121.868 243.152 120.663 246.589C116.579 258.24 117.522 266.911 116.264 274.498Z" fill="#2068D9"/>
<path d="M93.3215 288.125C93.751 281.808 94.8432 274.124 98.0459 269.392C100.612 265.599 101.796 266.414 104.702 266.995C106.42 269.174 109.384 276.449 107.494 288.125C105.132 302.72 92.5664 299.234 93.3215 288.125Z" fill="#FEBE9D"/>
<path d="M91.7565 279.105C92.2592 278.022 92.5944 276.486 92.6991 275.854C93.6416 268.809 92.6991 262.035 92.6991 250.384C92.6991 238.732 95.5272 226.539 98.0404 222.203C100.554 217.868 99.9255 214.075 101.183 211.907C102.439 209.739 106.209 207.301 104.953 199.985C103.696 192.668 108.095 191.855 108.409 182.643C108.723 173.43 110.608 161.779 116.578 153.649C122.548 145.521 144.541 140.101 146.741 155.546C148.94 170.991 140.771 181.288 137.315 188.062C133.859 194.836 129.46 209.468 128.831 213.261C128.203 217.055 125.375 227.894 125.375 232.5C125.375 237.106 124.119 245.506 122.233 252.822C120.348 260.138 116.264 269.08 115.007 269.892C113.75 270.706 113.122 271.248 113.122 272.602C113.122 273.957 112.493 278.564 112.179 280.189C111.865 281.815 111.551 282.357 110.608 281.815C109.666 281.273 108.095 281.273 105.267 281.273C102.439 281.273 97.7263 281.815 94.8986 281.544C92.0709 281.273 91.1284 280.46 91.7565 279.105Z" fill="#217BF4"/>
<path d="M104.011 271.79C97.9791 273.091 94.7952 271.971 93.9573 271.248C95.7377 271.79 99.9693 272.23 103.383 271.248C106.211 270.435 110.191 270.526 111.552 270.977C110.086 270.977 106.525 271.14 104.011 271.79Z" fill="#3881F2"/>
<path d="M108.41 272.331C108.096 273.414 107.719 275.853 108.725 276.937C109.73 278.021 108.934 279.015 108.41 279.376M97.4135 274.769C97.6229 275.582 97.7905 277.642 96.7854 279.376L97.4135 274.769ZM101.812 272.872L101.498 278.834L101.812 272.872Z" stroke="#2068D9" stroke-width="1.07894"/>
<path d="M108.427 281.325C109.245 279.867 110.176 277.605 109.981 275.582C109.667 272.331 105.268 271.247 102.755 271.789C105.896 270.434 112.809 267.454 114.694 260.68C116.579 253.906 115.95 249.841 109.981 249.299C108.724 249.299 107.467 249.029 111.866 245.777C116.265 242.525 123.177 236.293 116.579 232.5C109.981 228.706 105.582 225.726 104.64 221.661C107.781 223.829 111.552 226.268 113.123 226.538C114.482 226.773 114.43 226.602 113.781 224.448C113.68 224.111 113.564 223.726 113.437 223.287C112.494 220.035 110.295 211.907 110.295 209.468C111.238 212.449 112.809 217.055 116.893 218.952C120.978 220.848 122.234 215.7 121.606 212.178C120.978 208.655 120.663 205.945 124.748 202.965C128.832 199.984 135.43 189.417 130.717 184.81C126.005 180.204 117.522 171.804 117.836 165.301C118.08 160.245 117.565 158.629 115.256 155.613C115.673 154.939 116.113 154.283 116.579 153.649C120.845 147.84 133.295 143.415 140.856 146.999C141.562 147.432 142.263 147.87 142.955 148.315C144.891 149.887 146.27 152.238 146.741 155.546C148.572 168.405 143.217 177.695 139.377 184.355C138.605 185.694 137.894 186.928 137.315 188.062C133.86 194.836 129.461 209.468 128.832 213.261C128.638 214.436 128.232 216.285 127.766 218.416C126.724 223.168 125.376 229.319 125.376 232.5C125.376 237.106 124.119 245.506 122.234 252.822C120.349 260.138 116.264 269.08 115.008 269.892C113.751 270.706 113.123 271.248 113.123 272.602C113.123 273.957 112.494 278.564 112.18 280.189C111.866 281.815 111.552 282.357 110.609 281.815C110.099 281.522 109.405 281.387 108.427 281.325Z" fill="#1771EA"/>
<path d="M132.086 201.555C130.441 206.619 129.152 211.335 128.833 213.26C128.638 214.435 128.233 216.284 127.766 218.415C126.725 223.167 125.377 229.318 125.377 232.499C125.377 233.937 125.254 235.744 125.028 237.773C123.363 234.459 120.687 230.811 117.208 230.061C111.768 228.888 115.039 228.934 117.443 228.967C117.817 228.972 118.169 228.977 118.465 228.977C120.664 228.977 121.606 227.893 119.093 226.538C117.082 225.454 114.066 219.583 112.809 216.783C114.171 219.583 118.15 225.183 123.177 225.183C124.748 225.183 126.005 223.828 125.063 221.119C124.225 218.711 126.86 208.389 132.086 201.555Z" fill="#2068D9"/>
<path d="M148.676 136.635L150.861 124.032L166.427 127.32C166.063 128.963 166.099 134.059 166.973 140.197C167.847 146.333 170.432 149.603 171.889 150.608L148.676 136.635Z" fill="#FEBE9D"/>
<path d="M150.996 124.032L166.245 127.31C165.978 128.538 165.931 131.699 166.284 135.78C155.4 134.469 151.557 127.401 150.996 124.032Z" fill="#F2AD8A"/>
<path d="M142.331 179.07C141.759 175.294 144.334 174.484 146.623 173.405C148.02 172.747 149.737 171.887 150.342 170.212C154.359 171.809 158.375 172.21 164.648 171.39C164.934 175.209 165.563 184.034 165.792 188.782C166.078 194.717 168.081 204.159 161.5 200.922C154.92 197.685 152.917 197.415 149.77 198.224C146.623 199.034 144.334 198.224 144.048 193.099C143.762 187.973 142.903 180.149 142.331 179.07Z" fill="#8CB9FF"/>
<path d="M149.219 198.375C148.343 196.469 147.021 192.173 147.44 187.185C148.008 180.432 149.711 175.03 151.698 180.162C153.287 184.268 153.685 189.076 153.685 190.966C154.821 190.336 157.148 187.671 157.375 182.052C157.659 175.029 157.943 175.299 158.795 179.351C159.646 183.403 159.93 183.943 160.782 179.351C160.896 178.738 160.989 178.182 161.074 177.679C161.612 174.478 161.797 173.38 164.582 172.897C164.542 172.338 164.505 171.832 164.472 171.391C158.249 172.212 154.264 171.811 150.279 170.212C149.678 171.889 147.975 172.75 146.588 173.409C146.399 173.499 146.208 173.587 146.017 173.676C143.914 174.645 141.81 175.615 142.33 179.082C142.898 180.162 143.75 187.995 144.034 193.128C144.302 197.986 146.352 198.971 149.219 198.375Z" fill="#7EAEFA"/>
<path opacity="0.5" d="M142.889 181.54C143.966 179.246 145.851 176.088 147.736 175.553C150.582 174.745 151.151 174.207 152.004 173.399C152.858 172.591 153.711 173.129 153.996 174.207C154.28 175.284 155.134 174.207 155.987 173.13C156.841 172.053 158.548 172.861 158.833 173.669C158.934 173.957 159.29 173.765 159.9 173.435C160.847 172.923 162.408 172.079 164.582 172.192C164.561 171.904 164.541 171.635 164.523 171.388C158.285 172.206 154.291 171.806 150.297 170.212C149.695 171.884 147.988 172.742 146.598 173.4C146.409 173.489 146.217 173.577 146.026 173.665C143.917 174.632 141.809 175.599 142.331 179.055C142.499 179.374 142.693 180.284 142.889 181.54Z" fill="#70A2F2"/>
<path d="M163.066 131.438C152.698 130.136 144.405 121.104 141.648 116.946C136.133 118.302 135.03 117.487 134.754 113.691C134.478 109.894 141.648 107.996 143.027 101.759C144.405 95.5222 149.093 83.8623 162.329 78.4385C175.565 73.0152 186.87 90.6415 187.146 96.0653C187.422 101.489 186.598 114.393 183.285 121.827C179.779 129.695 176.026 133.065 163.066 131.438Z" fill="#FEBE9D"/>
<path d="M142.176 116.407C136.692 117.759 135.404 117.795 135.13 114.011C129.921 115.092 118.68 119.031 115.39 126.139C111.277 135.024 115.39 136.443 118.132 137.794C120.873 139.145 119.503 142.929 115.938 143.469C112.374 144.01 112.1 141.307 111.826 139.686C110.181 146.983 115.938 146.983 118.406 145.902C116.761 150.226 117.309 153.469 121.148 154.55C124.986 155.631 121.148 159.685 121.148 163.469C121.148 167.252 125.26 169.415 125.535 172.117C125.809 174.82 129.099 176.171 132.388 177.252C135.679 178.333 134.308 179.685 132.937 182.117C131.566 184.549 133.759 186.441 134.034 189.684C134.308 192.928 136.501 193.198 139.243 193.738C136.501 189.144 138.146 187.522 139.791 186.171L139.843 186.129C141.465 184.797 142.801 183.699 142.259 179.955C141.71 176.171 144.178 175.361 146.371 174.279C148.565 173.198 151.581 171.577 149.387 166.712C147.194 161.847 154.048 158.604 155.693 153.739C157.338 148.875 153.499 142.929 151.854 140.767C150.21 138.604 148.565 135.362 148.016 134.01C147.468 132.659 148.016 132.659 148.29 132.929C149.661 134.281 149.935 133.199 150.21 131.848C150.429 130.767 150.667 127.592 150.758 126.139C146.577 123.127 143.676 118.674 142.176 116.407Z" fill="#2B2B39"/>
<path d="M165.953 135.091V131.595C172.769 132.084 176.661 130.814 179.442 128.064C185.099 134.821 180.091 140.767 179.269 142.118C177.624 139.956 174.334 139.145 173.511 139.145C172.689 139.145 171.866 139.415 171.044 138.064C170.221 136.713 169.947 135.091 168.302 134.01C166.986 133.145 166.188 134.371 165.953 135.091Z" fill="#2B2B39"/>
<path d="M134.75 128.823C136.409 130.055 139.258 133.523 137.384 137.537" stroke="#151523" stroke-width="0.8"/>
<path d="M142.175 131.873C145.717 134.64 151.975 141.514 148.669 146.869C144.536 153.564 143.651 155.975 143.651 161.063" stroke="#151523" stroke-width="0.8"/>
<path d="M135.21 164.985C137.101 164.179 140.26 160.85 137.764 153.976C135.267 147.103 138.426 143.057 140.317 141.894" stroke="#151523" stroke-width="0.8"/>
<path d="M125.696 144.508C123.418 146.738 120.229 151.68 125.696 153.607C132.53 156.015 134.17 158.424 131.983 163.241" stroke="#151523" stroke-width="0.8"/>
<path d="M124.531 158.013C125.232 158.845 126.213 161.229 124.531 164.112" stroke="#151523" stroke-width="0.8"/>
<path d="M120.975 128.45C120.032 129.353 118.775 131.81 121.289 134.411C124.431 137.663 124.117 139.559 122.546 141.727" stroke="#151523" stroke-width="0.8"/>
<path opacity="0.5" d="M127.306 117.249C126.073 118.928 124.856 120.813 123.909 122.707C123.012 124.502 122.351 126.319 122.157 127.985C121.963 129.65 122.232 131.191 123.235 132.401C123.474 132.689 123.707 132.968 123.933 133.238C124.836 134.314 125.629 135.261 126.2 136.159C126.91 137.277 127.247 138.278 127.03 139.308C126.812 140.343 126.023 141.462 124.339 142.789C123.143 143.732 121.509 144.769 119.34 145.945C119.224 146.219 119.119 146.489 119.023 146.753C121.536 145.422 123.411 144.254 124.763 143.19C126.496 141.824 127.395 140.606 127.649 139.405C127.903 138.2 127.494 137.068 126.751 135.899C126.159 134.967 125.336 133.985 124.431 132.906L124.43 132.906C124.207 132.639 123.978 132.366 123.746 132.086C122.864 131.021 122.597 129.629 122.782 128.039C122.968 126.449 123.603 124.689 124.486 122.922C125.56 120.773 126.99 118.632 128.391 116.799C128.029 116.944 127.667 117.094 127.306 117.249Z" fill="#1C1C2A"/>
<path opacity="0.5" d="M144.195 119.605C143.651 121.446 143.237 123.932 143.393 126.591C143.593 130.004 144.733 133.721 147.762 136.716C151.462 140.373 152.769 142.956 152.769 145.188C152.769 147.43 151.456 149.399 149.659 151.858C147.85 154.334 146.784 156.772 146.926 159.709C147.049 162.266 148.086 165.169 150.281 168.776C150.171 168.157 149.954 167.467 149.607 166.695C149.492 166.441 149.402 166.19 149.335 165.944C148.14 163.54 147.563 161.505 147.475 159.683C147.342 156.912 148.339 154.593 150.105 152.177C151.883 149.743 153.319 147.634 153.319 145.188C153.319 142.731 151.876 140.014 148.151 136.332C145.241 133.455 144.136 129.878 143.942 126.56C143.8 124.13 144.147 121.848 144.625 120.102C144.477 119.934 144.334 119.769 144.195 119.605Z" fill="#1C1C2A"/>
<path opacity="0.5" d="M138.721 193.737C138.178 193.099 137.662 192.353 137.259 191.523C136.366 189.681 136.038 187.435 137.204 185.024C138.58 182.181 138.076 179.65 137.612 177.32C137.55 177.01 137.489 176.702 137.433 176.398C137.194 175.096 137.048 173.856 137.303 172.614C137.557 171.381 138.212 170.12 139.621 168.794C141.116 167.387 141.677 165.929 141.789 164.417C141.883 163.15 141.661 161.841 141.435 160.518C141.396 160.287 141.356 160.055 141.318 159.823C141.061 158.248 140.871 156.632 141.209 154.928C141.546 153.23 142.412 151.425 144.304 149.488L144.311 149.48L144.319 149.471C145.631 147.886 145.832 145.743 145.124 143.575C144.435 141.466 142.884 139.309 140.613 137.54C141.264 136.28 141.707 133.269 139.394 129.32C137.889 126.75 136.953 124.485 136.853 122.309C136.78 120.726 137.149 119.171 138.092 117.562C137.879 117.552 137.681 117.53 137.499 117.495C136.595 119.113 136.228 120.703 136.304 122.334C136.41 124.642 137.399 126.998 138.918 129.593C141.259 133.59 140.621 136.474 140.054 137.418C138.33 138.562 135.95 140.749 134.317 143.655C132.744 146.454 131.858 149.933 132.941 153.785C132.85 153.745 132.756 153.707 132.66 153.668C128.985 152.188 127.732 150.484 127.606 148.87C127.477 147.219 128.51 145.526 129.745 144.035C130.99 142.531 132.601 140.251 133.269 137.748C133.942 135.226 133.658 132.467 131.096 130.074C129.193 128.298 128.701 126.011 128.871 123.844C129.041 121.671 129.877 119.646 130.593 118.451L130.12 118.173C129.37 119.425 128.501 121.53 128.322 123.802C128.144 126.079 128.66 128.548 130.718 130.47C133.105 132.698 133.37 135.238 132.738 137.609C132.1 139.999 130.549 142.205 129.319 143.691C128.079 145.189 126.911 147.03 127.058 148.912C127.207 150.832 128.703 152.662 132.453 154.171C132.741 154.288 133.01 154.407 133.26 154.529C134.614 155.189 135.407 155.925 135.821 156.682C136.232 157.434 136.287 158.239 136.102 159.076C135.727 160.777 134.386 162.549 133.164 164.109L133.01 164.305C132.775 164.605 132.547 164.896 132.337 165.173C131.08 166.829 130.492 168.247 130.529 169.692C130.556 170.767 130.928 171.827 131.578 172.981C130.687 172.31 129.794 171.569 129.06 170.724C128.015 169.519 127.314 168.122 127.408 166.438C127.452 165.644 127.673 164.775 128.13 163.821C128.753 162.522 129.195 161.358 129.373 160.337C129.552 159.313 129.469 158.408 129.011 157.653C128.554 156.899 127.748 156.341 126.577 155.955C125.574 155.625 124.287 155.414 122.677 155.318C122.799 155.489 122.881 155.677 122.931 155.879C124.376 155.981 125.519 156.18 126.403 156.471C127.5 156.832 128.172 157.328 128.54 157.933C128.907 158.538 128.996 159.297 128.831 160.244C128.666 161.194 128.248 162.306 127.633 163.589C127.155 164.588 126.912 165.517 126.86 166.383C126.571 167.566 126.142 169.461 125.784 171.333C125.743 171.549 125.702 171.766 125.663 171.981C125.671 172.031 125.677 172.081 125.682 172.131C125.723 172.539 125.832 172.915 125.999 173.265C126.094 172.678 126.205 172.059 126.324 171.434C126.545 170.28 126.793 169.118 127.018 168.12C127.297 169.241 127.897 170.218 128.643 171.077C129.742 172.344 131.174 173.376 132.395 174.254L132.785 173.883C131.694 172.265 131.111 170.959 131.079 169.678C131.046 168.404 131.558 167.105 132.777 165.499C132.865 165.382 132.956 165.264 133.051 165.142C133.017 166.085 133.044 167.313 133.205 168.62C133.422 170.392 133.887 172.33 134.793 173.897C135.604 175.301 135.284 176.959 134.484 178.519C134.483 178.52 134.482 178.522 134.481 178.523C134.641 178.846 134.627 179.2 134.501 179.595C134.67 179.325 134.829 179.047 134.974 178.764C135.806 177.143 136.219 175.268 135.27 173.627C134.416 172.15 133.964 170.292 133.751 168.555C133.544 166.867 133.564 165.316 133.648 164.379C134.84 162.855 136.239 161.01 136.64 159.192C136.845 158.257 136.792 157.314 136.304 156.423C135.832 155.558 134.967 154.773 133.608 154.093C132.368 150.228 133.215 146.734 134.797 143.918C136.346 141.163 138.593 139.07 140.245 137.946C142.46 139.663 143.948 141.744 144.6 143.742C145.266 145.783 145.057 147.714 143.9 149.118C141.948 151.12 141.028 153.015 140.669 154.823C140.312 156.627 140.517 158.324 140.775 159.909C140.815 160.149 140.855 160.387 140.895 160.621C141.12 161.947 141.33 163.181 141.241 164.377C141.138 165.761 140.634 167.091 139.242 168.401C137.763 169.793 137.043 171.149 136.764 172.506C136.487 173.855 136.65 175.18 136.892 176.495C136.95 176.808 137.011 177.121 137.073 177.434C137.536 179.769 138.001 182.118 136.708 184.789C135.455 187.379 135.814 189.8 136.763 191.758C137.081 192.413 137.464 193.018 137.877 193.561C138.149 193.623 138.431 193.68 138.721 193.737Z" fill="#1C1C2A"/>
<path d="M115.712 126.271C118.432 124.412 121.318 123.017 122.037 124.587C123.403 127.57 126.135 125.672 126.954 123.503C127.774 121.333 128.047 121.876 129.413 125.13C129.998 126.523 130.382 125.828 130.91 124.876C131.614 123.604 132.573 121.873 134.604 124.044C136.315 125.874 137.9 124.051 139.388 122.338C140.988 120.497 142.477 118.784 143.892 121.875C144.813 123.885 145.485 126.048 146.118 128.086C146.738 130.081 147.32 131.955 148.061 133.446C147.914 132.731 148.315 132.773 148.536 132.993C149.902 134.349 150.175 133.264 150.449 131.908C150.667 130.823 150.904 127.637 150.995 126.18C146.829 123.157 143.669 118.682 142.174 116.407C136.71 117.764 135.697 117.807 135.423 114.011C130.233 115.096 119.032 119.048 115.753 126.18C115.74 126.21 115.726 126.241 115.712 126.271Z" fill="#1C1C2A"/>
<path d="M147.981 134.042C147.433 132.687 147.981 132.687 148.256 132.958C148.877 133.571 149.273 133.685 149.545 133.5C151.402 135.307 155.663 139.356 157.858 141.091C160.053 142.826 165.723 144.705 168.284 145.428C167.357 143.531 165.59 138.814 165.934 135.127C166.168 134.404 166.967 133.175 168.284 134.042C169.93 135.127 170.204 136.753 171.027 138.109C171.85 139.464 172.673 139.193 173.496 139.193C174.32 139.193 177.612 140.006 179.258 142.175C179.715 142.537 181.014 143.368 182.55 143.802C184.471 144.344 186.94 147.055 186.117 149.766C185.294 152.477 182.001 155.188 180.355 158.17C178.709 161.152 176.24 170.098 167.735 171.725C166.253 172.008 164.888 172.236 163.62 172.41C157.605 173.235 153.753 172.831 149.902 171.227C150.272 170.153 150.208 168.746 149.353 166.845C147.158 161.965 154.017 158.712 155.663 153.832C157.31 148.952 153.468 142.988 151.822 140.82C150.176 138.651 148.53 135.398 147.981 134.042Z" fill="#8CB9FF"/>
<path d="M160.281 142.328C161.838 144.524 164.872 147.59 168.652 147.954C174.265 148.494 175.067 143.363 174.532 140.933C172.127 142.824 167.85 144.444 168.117 140.663C168.154 140.137 168.196 139.636 168.237 139.16C168.427 136.913 168.573 135.2 167.915 133.792C166.752 133.179 166.043 134.312 165.827 134.994C165.492 138.666 167.214 143.364 168.117 145.254C166.29 144.727 162.838 143.582 160.281 142.328Z" fill="#7EAEFA"/>
<path d="M157.901 171.776C157.105 171.568 156.322 171.321 155.539 171.036C155.963 169.963 155.89 168.556 154.911 166.656C153.371 163.669 155.721 161.291 158.207 158.777C159.779 157.186 161.406 155.54 162.137 153.65C163.476 150.185 161.645 146.174 159.795 143.364C162.145 144.692 165.782 146.639 168.421 147.689C172.505 149.315 171.563 152.295 166.221 149.585C164.022 148.502 164.022 152.024 168.421 153.921C172.819 155.818 180.988 155.547 183.816 149.044C186.644 142.54 190.1 143.353 187.901 149.585C185.701 155.818 181.302 162.592 177.847 164.76C176.172 165.809 173.761 166.097 171.291 166.391C168.662 166.704 165.966 167.024 164.022 168.282C161.13 170.152 160.318 171.674 160.255 172.274C159.761 172.194 159.276 172.101 158.798 171.994L157.901 171.776Z" fill="#7EAEFA"/>
<path opacity="0.5" d="M149.86 170.212C149.989 169.258 149.799 168.08 149.116 166.603C147.738 163.625 149.841 161.255 152.066 158.748C153.473 157.163 154.929 155.522 155.582 153.638C155.68 153.357 155.758 153.073 155.82 152.786L158.956 155.799C160.924 157.689 167.672 157.958 171.045 157.149C168.796 158.5 165.985 158.768 160.643 157.958C155.301 157.148 153.614 159.579 156.707 161.199C159.8 162.82 168.796 160.389 171.889 158.228C169.089 162.874 163.754 163.537 159.848 164.021C159.44 164.072 159.047 164.12 158.675 164.171C157.303 164.36 155.795 164.22 154.447 164.095C151.929 163.862 149.972 163.68 150.522 165.792C151.127 168.121 150.418 169.607 149.86 170.212Z" fill="#70A2F2"/>
<path d="M153.014 89.1774C154.752 82.8867 160.077 82.7603 162.522 83.4835C163.88 83.7423 162.794 80.5011 167.412 79.9588C172.031 79.4165 175.019 82.3993 176.378 84.5685C177.736 86.7376 178.822 88.9068 180.996 90.8047C182.082 94.0584 185.614 97.5835 186.429 98.3968C186.429 99.2104 186.743 104.6 186.743 107.04C191.362 103.515 189.418 100.295 190.505 97.3122C191.374 94.9262 190.686 93.4257 190.233 92.9738C190.323 91.7083 190.396 88.7982 189.961 87.2799C189.418 85.3817 187.516 85.1108 186.701 85.1108C187.244 83.7548 186.701 82.3993 185.886 81.8566C185.071 81.3143 184.256 79.9588 183.169 77.7896C182.082 75.6204 177.736 72.0955 175.834 71.282C173.932 70.4686 173.932 69.1128 173.389 68.5705C166.325 62.3341 160.077 65.0456 158.719 65.5879C157.36 66.1302 156.546 65.5879 156.002 65.3168C145.407 58.8093 138.615 68.0283 136.713 70.7398C125.303 75.6205 121.228 81.857 122.043 90.5337C122.858 99.2104 120.413 102.464 118.511 104.362C116.61 106.26 117.153 108.158 118.783 110.328C121.771 114.666 116.61 115.208 114.708 116.293C112.806 117.377 114.165 120.36 113.35 121.716C112.534 123.071 112.806 125.783 114.98 127.952C118.24 121.716 127.476 119.004 132.638 117.92C137.8 116.835 142.69 109.514 146.493 106.26C150.297 103.006 150.84 97.0408 153.014 89.1774Z" fill="#2B2B39"/>
<path opacity="0.5" d="M145.873 106.861C146.295 100.284 147.558 92.4405 150.186 86.5044C151.803 82.8529 153.92 79.9625 156.637 78.5097C159.298 77.0867 162.588 77.0161 166.662 79.0665C166.61 79.4731 166.504 79.8584 166.361 80.2181C166.557 80.164 166.766 80.116 166.992 80.0752C167.108 79.7154 167.189 79.3342 167.225 78.9341C167.346 77.5717 166.928 76.0231 165.567 74.402C164.105 72.6591 162.602 71.3224 161.264 70.1327C160.853 69.7681 160.459 69.4172 160.086 69.0727C158.94 68.015 157.995 67.0159 157.373 65.8461C157.108 65.8118 156.877 65.7377 156.672 65.6523C157.127 66.6654 157.795 67.5383 158.595 68.3778C157.293 67.855 155.673 67.3772 153.933 67.1458C150.476 66.6863 146.491 67.1954 143.598 70.3282C140.565 73.6137 138.026 78.3211 135.975 83.1747C133.922 88.0323 132.35 93.0567 131.257 96.9913C130.172 100.894 128.344 104.856 125.915 107.937C124.107 110.23 121.979 112.022 119.588 112.952C119.554 113.192 119.479 113.41 119.37 113.61C122.052 112.685 124.398 110.741 126.345 108.271C128.828 105.121 130.683 101.091 131.782 97.1354C132.872 93.213 134.438 88.2124 136.478 83.3843C138.521 78.5513 141.031 73.9115 144.001 70.6944C146.379 68.1186 149.555 67.4045 152.561 67.5618C149.643 68.6761 144.708 71.5836 141.114 77.1384C138.56 81.0855 137.06 86.8282 135.569 92.537L135.451 92.9901C133.912 98.8778 132.353 104.679 129.658 108.56C127.513 111.647 124.516 113.537 121.631 114.645C119.191 115.582 116.841 115.955 115.177 116.022C114.964 116.112 114.769 116.204 114.6 116.3C114.499 116.358 114.406 116.421 114.322 116.489L114.32 116.571C116.038 116.617 118.871 116.286 121.828 115.151C124.787 114.014 127.885 112.066 130.107 108.868C132.869 104.891 134.448 98.9848 135.979 93.1262L136.083 92.7284C137.586 86.974 139.067 81.3039 141.573 77.4312C145.651 71.1285 151.485 68.3203 153.913 67.69C155.714 67.9349 157.379 68.4507 158.673 68.9961C155.372 69.1884 149.986 70.9712 147.637 77.1897C146.835 79.3136 145.758 82.7911 144.491 86.8779L144.396 87.1876C143.086 91.4129 141.578 96.2689 139.96 100.972C138.341 105.676 136.613 110.22 134.868 113.82C134.103 115.398 133.338 116.79 132.578 117.933C132.589 117.93 132.6 117.928 132.611 117.926C132.861 117.873 133.111 117.807 133.359 117.726C134.029 116.662 134.697 115.423 135.36 114.055C137.119 110.425 138.855 105.858 140.476 101.148C142.098 96.4353 143.609 91.5716 144.917 87.3471L145.007 87.0564C146.278 82.9538 147.352 79.4881 148.148 77.3799C150.683 70.6698 156.904 69.3564 159.785 69.5348C160.149 69.8692 160.528 70.206 160.918 70.5527C162.251 71.7385 163.713 73.0395 165.148 74.7489C166.287 76.1051 166.697 77.3706 166.699 78.4794C162.598 76.4738 159.184 76.5323 156.378 78.0328C153.505 79.5688 151.324 82.5884 149.687 86.2859C146.943 92.4805 145.677 100.689 145.293 107.419C145.489 107.226 145.682 107.039 145.873 106.861Z" fill="#1C1C2A"/>
<path opacity="0.5" d="M119.197 111.174C122.35 110.029 124.199 107.254 125.432 103.861C126.189 101.774 126.721 99.4379 127.182 97.0721C127.366 96.1308 127.538 95.1876 127.708 94.2528C127.968 92.8286 128.223 91.4242 128.512 90.0748C129.86 83.7623 133.884 75.4632 136.359 70.9302C136.083 71.0499 135.812 71.1703 135.544 71.2917C133.044 75.9521 129.283 83.8551 127.978 89.9625C127.689 91.3164 127.429 92.7386 127.168 94.1712C126.998 95.1048 126.827 96.0428 126.646 96.9691C126.187 99.3281 125.661 101.631 124.918 103.677C123.701 107.028 121.92 109.642 118.926 110.694C119.029 110.86 119.119 111.019 119.197 111.174Z" fill="#1C1C2A"/>
<path d="M186.453 99.1248C186.849 99.1563 187.249 99.1769 187.646 99.1882C188.45 99.2112 189.256 99.1959 190.029 99.1555C190.05 98.9722 190.075 98.7901 190.105 98.6092C189.314 98.6528 188.487 98.6705 187.662 98.6471C187.248 98.6354 186.837 98.6132 186.434 98.5797C186.437 98.7182 186.444 98.9027 186.453 99.1248Z" fill="#3A0A44"/>
<path d="M181.221 91.4077C184.737 93.1537 188.18 93.5522 190.456 93.4662C190.354 93.2724 190.246 93.1258 190.148 93.0281L190.151 92.9894L190.155 92.9332C187.785 92.9772 184.213 92.4826 180.653 90.4963C180.764 90.6001 180.877 90.7031 180.994 90.8048C181.061 91.0051 181.137 91.2062 181.221 91.4077Z" fill="#3A0A44"/>
<path opacity="0.5" d="M162.601 71.7316C163.824 70.3346 167.624 68.2706 173.866 69.5262C173.965 69.7273 174.08 69.9422 174.234 70.1582C167.855 68.7251 164.104 70.836 163.009 72.0882L162.601 71.7316Z" fill="#1C1C2A"/>
<path opacity="0.5" d="M184.681 85.1897C185.367 85.3177 186.06 85.222 186.752 84.7988C186.72 84.924 186.679 85.0503 186.628 85.1763C186.765 85.1763 186.933 85.184 187.12 85.2062C186.298 85.7376 185.444 85.8826 184.582 85.7219C183.369 85.4957 182.188 84.672 181.093 83.6112C179.385 81.9569 177.8 79.6347 176.551 77.8051C176.199 77.2882 175.873 76.811 175.578 76.3991C174.584 75.0067 172.912 74.7285 171.136 75C169.365 75.2706 167.571 76.0797 166.462 76.7447L166.184 76.2804C167.332 75.5915 169.193 74.7491 171.054 74.4647C172.91 74.1811 174.848 74.4445 176.019 76.0845C176.326 76.5142 176.661 77.0048 177.021 77.5313C178.268 79.3573 179.806 81.6112 181.469 83.222C182.54 84.2593 183.626 84.9926 184.681 85.1897Z" fill="#1C1C2A"/>
<path d="M166.749 72.5949C168.381 71.3212 172.464 69.8109 175.729 73.9596C178.995 78.1085 182.17 80.7836 183.35 81.6025M170.559 78.0544C173.008 78.6912 178.288 80.8381 179.812 84.3318C181.717 88.6988 185.255 91.4284 187.976 91.1554M185.799 93.8847C186.253 94.6127 187.541 95.8499 189.065 94.9765M165.388 67.1365C166.567 66.9546 169.252 66.7544 170.559 67.4095" stroke="#151523" stroke-width="0.8"/>
<path d="M160.281 72.4773C156.666 72.387 148.679 75.0809 145.643 86.5799M144.829 77.0879C142.751 80.9748 138.215 90.3768 136.697 96.8855C134.799 105.022 133.444 115.328 119.89 117.497M122.601 103.666C123.866 101.677 126.234 96.5059 125.583 91.7327C124.77 85.7663 125.854 80.0712 130.733 76.8166M152.962 65.6972C148.173 65.3356 138.053 66.999 135.884 76.5452C133.715 86.0917 129.017 98.2414 126.939 103.123" stroke="#151523" stroke-width="0.8"/>
</g>
<path d="M404.891 80.8909H328.037C324.642 80.8909 321.89 83.6823 321.89 87.1263V104.8C321.89 108.244 324.642 111.036 328.037 111.036H390.668L409.839 117.357L404.567 111.036H404.891C408.285 111.036 411.037 108.244 411.037 104.8V87.1263C411.037 83.6823 408.285 80.8909 404.891 80.8909Z" fill="#FFBE56"/>
<path fill-rule="evenodd" clip-rule="evenodd" d="M342.499 98.3946C344.087 98.3946 345.375 97.0883 345.375 95.4772C345.375 93.8661 344.087 92.5598 342.499 92.5598C340.911 92.5598 339.624 93.8661 339.624 95.4772C339.624 97.0883 340.911 98.3946 342.499 98.3946ZM358.795 98.3946C360.383 98.3946 361.671 97.0883 361.671 95.4772C361.671 93.8661 360.383 92.5598 358.795 92.5598C357.207 92.5598 355.919 93.8661 355.919 95.4772C355.919 97.0883 357.207 98.3946 358.795 98.3946ZM377.487 95.4772C377.487 97.0883 376.2 98.3946 374.611 98.3946C373.023 98.3946 371.736 97.0883 371.736 95.4772C371.736 93.8661 373.023 92.5598 374.611 92.5598C376.2 92.5598 377.487 93.8661 377.487 95.4772ZM390.428 98.3946C392.016 98.3946 393.304 97.0883 393.304 95.4772C393.304 93.8661 392.016 92.5598 390.428 92.5598C388.84 92.5598 387.552 93.8661 387.552 95.4772C387.552 97.0883 388.84 98.3946 390.428 98.3946Z" fill="white"/>
<path d="M289.489 461.481C289.489 514.025 331.478 556.62 383.273 556.62C435.07 556.62 477.061 514.025 477.061 461.481C477.061 408.936 435.07 366.34 383.273 366.34C331.478 366.34 289.489 408.936 289.489 461.481Z" fill="white"/>
<path d="M383.273 555.62C332.044 555.62 290.489 513.486 290.489 461.481C290.489 409.475 332.044 367.34 383.273 367.34C434.504 367.34 476.061 409.475 476.061 461.481C476.061 513.486 434.504 555.62 383.273 555.62Z" stroke="#2773D9" stroke-opacity="0.6" stroke-width="2"/>
<path d="M401.127 398.986C391.607 419.01 375.261 407.068 371.508 398.985C378.956 398.983 376.568 383.669 375.499 376.012H397.498C397.083 387.806 399.743 396.242 401.127 398.986Z" fill="#FCC4AC"/>
<path d="M401.127 398.986C391.607 419.01 375.261 407.068 371.508 398.985C378.956 398.983 376.568 383.669 375.499 376.012H397.498C397.083 387.806 399.743 396.242 401.127 398.986Z" fill="url(#paint1_linear_13_743)"/>
<path d="M351.07 408.848C350.957 441.582 342.144 528.153 340.837 541.626C340.148 548.753 357.295 554.983 376.497 556.376C401.442 558.187 422.307 549.652 426.809 545.761C428.05 506.853 430.016 421.926 430.016 414.709C420.685 407.964 407.322 401.651 401.127 398.987C388.833 406.715 380.042 404.075 374.269 398.095C365.592 399.739 355.121 406.343 351.07 408.848Z" fill="#307FE2"/>
<path d="M351.07 408.848C350.957 441.582 342.144 528.153 340.837 541.626C340.148 548.753 357.295 554.983 376.497 556.376C401.442 558.187 422.307 549.652 426.809 545.761C428.05 506.853 430.016 421.926 430.016 414.709C420.685 407.964 407.322 401.651 401.127 398.987C388.833 406.715 380.042 404.075 374.269 398.095C365.592 399.739 355.121 406.343 351.07 408.848Z" fill="url(#paint2_linear_13_743)"/>
<path d="M351.07 408.848C350.957 441.582 342.144 528.153 340.837 541.626C340.148 548.753 357.295 554.983 376.497 556.376C401.442 558.187 422.307 549.652 426.809 545.761C428.05 506.853 430.016 421.926 430.016 414.709C420.685 407.964 407.322 401.651 401.127 398.987C388.833 406.715 380.042 404.075 374.269 398.095C365.592 399.739 355.121 406.343 351.07 408.848Z" fill="#2773D9"/>
<path opacity="0.35" d="M373.044 398.356C373.193 398.321 373.341 398.288 373.484 398.255C374.321 403.708 375.147 411.024 375.432 418.568C375.788 428.054 375.283 437.932 372.83 444.915C369.807 453.543 369.807 464.022 370.567 473.777C370.888 477.948 371.351 481.979 371.779 485.673V485.674V485.687C371.85 486.306 371.922 486.916 371.987 487.515C372.462 491.687 372.848 495.361 372.848 498.196C372.848 498.811 372.848 499.414 372.848 500.008C372.872 504.841 372.89 509.028 371.565 513.988C370.086 519.558 366.921 526.09 360.221 535.633C359.39 536.829 359.194 538.517 359.473 540.509C359.746 542.496 360.482 544.749 361.468 547.038C362.579 549.626 363.999 552.246 365.4 554.562C365.204 554.522 365.002 554.482 364.806 554.441C363.464 552.201 362.122 549.697 361.059 547.22C360.067 544.912 359.312 542.616 359.027 540.572C358.748 538.533 358.926 536.705 359.853 535.371V535.37C366.541 525.848 369.671 519.367 371.132 513.869C372.438 508.972 372.421 504.846 372.403 500.009V500.007C372.403 499.415 372.397 498.812 372.397 498.196C372.397 495.392 372.017 491.745 371.542 487.567C371.476 486.966 371.405 486.354 371.334 485.732V485.727V485.727C370.906 482.033 370.443 477.992 370.116 473.813C369.356 464.047 369.356 453.487 372.409 444.763C374.826 437.865 375.337 428.061 374.98 418.585C374.701 411.074 373.882 403.789 373.044 398.356Z" fill="white"/>
<path opacity="0.35" d="M344.415 547.34C344.629 547.489 344.849 547.637 345.08 547.784C344.201 545.667 343.548 543.596 343.293 541.753C343.019 539.761 343.209 538.073 344.041 536.877C350.74 527.334 353.906 520.802 355.391 515.232C356.71 510.272 356.692 506.085 356.674 501.252V501.242C356.668 500.652 356.668 500.052 356.668 499.439C356.668 496.605 356.288 492.931 355.813 488.759C355.741 488.16 355.67 487.55 355.599 486.931V486.917V486.917C355.171 483.223 354.708 479.191 354.387 475.021C353.627 465.266 353.627 454.787 356.656 446.159C359.103 439.176 359.608 429.298 359.252 419.812C359.05 414.47 358.58 409.243 358.022 404.71C357.88 404.789 357.737 404.868 357.6 404.947C358.147 409.425 358.604 414.572 358.8 419.829C359.157 429.305 358.646 439.109 356.228 446.007C353.176 454.731 353.176 465.291 353.936 475.056C354.263 479.237 354.726 483.277 355.153 486.97V486.971V486.976C355.225 487.598 355.296 488.21 355.367 488.811C355.842 492.989 356.217 496.635 356.217 499.439C356.217 500.055 356.222 500.657 356.222 501.248V501.253C356.24 506.09 356.258 510.216 354.957 515.114C353.49 520.611 350.36 527.092 343.673 536.614V536.615C342.746 537.949 342.568 539.776 342.847 541.816C343.085 543.528 343.655 545.416 344.415 547.34Z" fill="white"/>
<path opacity="0.35" d="M381.566 556.984C380.444 555.034 379.351 552.93 378.454 550.844C377.462 548.536 376.708 546.24 376.429 544.196C376.144 542.157 376.322 540.329 377.249 538.995V538.995C383.936 529.473 387.072 522.991 388.533 517.494C389.834 512.596 389.816 508.47 389.798 503.633V503.631C389.798 503.039 389.792 502.437 389.792 501.82C389.792 499.016 389.418 495.369 388.943 491.191C388.872 490.588 388.801 489.975 388.729 489.352V489.351C388.308 485.658 387.838 481.617 387.518 477.437C386.757 467.671 386.752 457.111 389.81 448.387C392.228 441.489 392.732 431.685 392.382 422.21C392.121 415.336 391.414 408.65 390.654 403.4C390.802 403.373 390.951 403.343 391.093 403.311C391.853 408.579 392.572 415.29 392.827 422.192C393.184 431.679 392.679 441.556 390.232 448.539C387.209 457.167 387.203 467.646 387.963 477.401C388.29 481.572 388.753 485.603 389.175 489.296V489.297C389.246 489.921 389.317 490.535 389.389 491.139C389.864 495.311 390.244 498.985 390.244 501.82C390.244 502.435 390.244 503.039 390.25 503.633C390.268 508.465 390.285 512.652 388.967 517.613C387.482 523.182 384.322 529.715 377.617 539.257C376.785 540.453 376.595 542.141 376.868 544.133C377.148 546.12 377.884 548.373 378.864 550.662C379.797 552.833 380.949 555.026 382.119 557.043C381.935 557.024 381.751 557.004 381.566 556.984Z" fill="white"/>
<path opacity="0.35" d="M400.145 558.172C398.779 555.904 397.412 553.36 396.332 550.843C395.34 548.536 394.585 546.24 394.3 544.196C394.021 542.156 394.199 540.329 395.126 538.995V538.994C401.814 529.472 404.944 522.99 406.411 517.494C407.711 512.596 407.693 508.47 407.676 503.633C407.676 503.04 407.67 502.437 407.67 501.82C407.67 499.016 407.296 495.369 406.82 491.191C406.749 490.588 406.678 489.975 406.607 489.352V489.351C406.185 485.658 405.716 481.616 405.395 477.437C404.629 467.671 404.629 457.11 407.688 448.387C410.105 441.489 410.61 431.685 410.259 422.209C409.98 414.845 409.184 407.697 408.371 402.299C408.531 402.377 408.691 402.456 408.858 402.536C409.659 407.912 410.432 414.947 410.705 422.192C411.061 431.678 410.556 441.555 408.109 448.539C405.086 457.167 405.08 467.646 405.84 477.401C406.167 481.572 406.63 485.603 407.052 489.297V489.305C407.123 489.926 407.195 490.538 407.266 491.139C407.741 495.311 408.121 498.984 408.121 501.82C408.121 502.435 408.121 503.038 408.127 503.63V503.632C408.145 508.465 408.163 512.652 406.844 517.612C405.359 523.182 402.2 529.714 395.494 539.257C394.663 540.453 394.472 542.141 394.746 544.133C395.025 546.12 395.761 548.372 396.741 550.662C397.852 553.248 399.271 555.867 400.673 558.181C400.495 558.178 400.323 558.175 400.145 558.172Z" fill="white"/>
<path opacity="0.35" d="M418.284 557.262C417.108 555.234 415.95 553.029 415.012 550.843C414.02 548.536 413.266 546.24 412.987 544.196C412.701 542.156 412.886 540.329 413.806 538.995L413.812 538.994C420.5 529.472 423.63 522.99 425.091 517.494C426.392 512.596 426.38 508.47 426.362 503.633C426.356 503.04 426.356 502.437 426.356 501.82C426.356 499.016 425.976 495.369 425.501 491.191C425.429 490.589 425.364 489.977 425.293 489.354V489.351C424.865 485.657 424.402 481.616 424.075 477.437C423.315 467.671 423.309 457.11 426.368 448.387C428.785 441.489 429.296 431.685 428.94 422.209C428.827 419.261 428.637 416.347 428.387 413.566C428.553 413.676 428.708 413.787 428.868 413.897C429.1 416.573 429.284 419.366 429.385 422.192C429.741 431.678 429.237 441.555 426.79 448.539C423.766 457.167 423.76 467.646 424.521 477.401C424.847 481.572 425.311 485.603 425.738 489.297C425.81 489.921 425.875 490.535 425.946 491.138C426.421 495.311 426.801 498.984 426.801 501.82C426.801 502.435 426.807 503.038 426.807 503.632C426.825 508.465 426.843 512.652 425.524 517.612C424.04 523.182 420.88 529.714 414.174 539.257C413.349 540.453 413.153 542.141 413.432 544.132C413.705 546.12 414.442 548.372 415.428 550.662C416.378 552.883 417.56 555.128 418.76 557.183C418.605 557.21 418.445 557.236 418.284 557.262Z" fill="white"/>
<path d="M362.159 343.82C361.862 350.677 362.159 367.433 362.159 379.708C362.159 400.455 392.812 384.368 397.498 376.011C406.728 359.551 396.524 344.708 394.576 343.82H362.159Z" fill="url(#paint3_linear_13_743)"/>
<path d="M362.159 343.82C361.862 350.677 362.159 367.433 362.159 379.708C362.159 400.455 392.812 384.368 397.498 376.011C406.728 359.551 396.524 344.708 394.576 343.82H362.159Z" fill="#FCC4AC"/>
<path d="M397.985 337.772C404.684 336.481 403.704 341.985 403.318 342.881C419.325 347.354 399.867 380.154 397.48 380.836L397.462 374.716C397.438 372.277 402.142 369.792 399.57 365.505C396.155 359.815 395.413 370.996 395.413 370.996C392.989 369.702 392.11 360.423 394.367 355.173C386.444 358.719 381.247 352.113 380.244 350.226C374.655 353.523 366.09 352.199 363.334 349.485C362.895 350.999 362.022 353.817 362.022 358.753C355.631 355.262 352.335 342.375 355.714 343.551C355.281 317.888 377.607 327.115 380.244 330.165C382.875 333.214 383.498 332.36 383.843 332.132C393.251 327.473 397.824 332.09 396.945 335.031C396.06 337.973 397.723 337.831 397.985 337.772Z" fill="#6E000E"/>
<path d="M265.676 452.533C260.887 452.965 256.726 450.066 257.658 449.738C270.119 445.351 286.872 450.815 296.556 453.829C299.955 460.797 294.314 468.518 291.069 471.507C289.434 469.832 286.051 467.666 283.833 467.666C272.561 467.037 261.713 483.445 250.688 475.277C241.869 468.743 257.006 457.392 265.676 452.533Z" fill="#F4B88E"/>
<path d="M265.676 452.533C260.887 452.965 256.726 450.066 257.658 449.738C270.119 445.351 286.872 450.815 296.556 453.829C299.955 460.797 294.314 468.518 291.069 471.507C289.434 469.832 286.051 467.666 283.833 467.666C272.561 467.037 261.713 483.445 250.688 475.277C241.869 468.743 257.006 457.392 265.676 452.533Z" fill="#FCC4AC"/>
<path d="M351.069 408.844C352.239 430.791 348.693 468.593 345.997 487.829C343.146 495.078 282.471 472.507 284.083 468.143C285.696 463.778 289.734 457.383 291.728 452.246C293.096 448.721 328.019 465.325 329.31 459.369C330.602 453.413 331.596 419.944 351.069 408.844Z" fill="#307FE2"/>
<path d="M351.069 408.844C352.239 430.791 348.693 468.593 345.997 487.829C343.146 495.078 282.471 472.507 284.083 468.143C285.696 463.778 289.734 457.383 291.728 452.246C293.096 448.721 328.019 465.325 329.31 459.369C330.602 453.413 331.596 419.944 351.069 408.844Z" fill="url(#paint4_linear_13_743)"/>
<path d="M351.069 408.844C352.239 430.791 348.693 468.593 345.997 487.829C343.146 495.078 282.471 472.507 284.083 468.143C285.696 463.778 289.734 457.383 291.728 452.246C293.096 448.721 328.019 465.325 329.31 459.369C330.602 453.413 331.596 419.944 351.069 408.844Z" fill="#2773D9"/>
<path opacity="0.35" fill-rule="evenodd" clip-rule="evenodd" d="M348.167 410.524C343.789 422.484 342.572 439.67 344.55 452.704C345.536 459.206 346.064 464.915 345.215 469.589C344.372 474.247 342.162 477.869 337.658 480.221C335.991 481.092 334.448 480.984 332.823 480.382C331.614 479.934 330.381 479.222 329.025 478.441C328.537 478.158 328.032 477.867 327.507 477.576C323.561 475.387 318.62 473.299 311.243 475.602C305.493 477.397 299.784 475.53 295.233 472.628C290.676 469.724 287.328 465.812 286.301 463.604L285.895 463.798C286.969 466.107 290.388 470.077 294.994 473.014C299.604 475.953 305.452 477.886 311.375 476.038C318.589 473.786 323.398 475.816 327.291 477.976C327.797 478.256 328.291 478.541 328.773 478.819C330.14 479.608 331.423 480.348 332.669 480.81C334.376 481.442 336.055 481.571 337.864 480.626C342.513 478.2 344.793 474.446 345.654 469.672C346.522 464.914 345.975 459.136 344.989 452.635C343.023 439.665 344.241 422.559 348.588 410.683L348.167 410.524ZM338.863 423.789C339.006 423.02 339.138 422.311 339.252 421.674L338.811 421.592C338.697 422.226 338.566 422.932 338.423 423.701C337.651 427.852 336.544 433.805 335.963 439.896C335.275 447.102 335.317 454.558 337.557 459.465C340.19 465.229 339.125 469.214 336.752 471.181C334.363 473.161 330.56 473.178 327.535 470.826C325.898 469.553 323.298 467.994 319.919 467.534C316.535 467.073 312.392 467.717 307.68 470.816C306.476 471.608 304.58 471.746 302.416 471.32C300.261 470.897 297.884 469.925 295.755 468.563C293.624 467.199 291.756 465.453 290.605 463.491C289.456 461.533 289.025 459.367 289.744 457.138L289.317 456.996C288.55 459.376 289.019 461.678 290.22 463.724C291.417 465.764 293.344 467.558 295.515 468.948C297.687 470.338 300.115 471.332 302.33 471.767C304.535 472.2 306.574 472.087 307.924 471.198C312.552 468.154 316.589 467.539 319.859 467.985C323.135 468.432 325.664 469.945 327.262 471.188C330.426 473.648 334.462 473.666 337.036 471.534C339.625 469.387 340.648 465.147 337.965 459.274C335.78 454.49 335.723 447.146 336.41 439.94C336.989 433.872 338.091 427.942 338.863 423.789Z" fill="white"/>
<path d="M291.728 452.246C289.734 457.383 285.696 463.779 284.083 468.143C283.808 468.891 285.358 470.172 288.132 471.746C292.586 468.4 296.437 457.626 297.805 452.657C294.42 451.728 292.064 451.381 291.728 452.246Z" fill="#105CC1"/>
<path d="M416.989 559.464C419.103 558.468 426.237 544.054 430.014 534.029L421.45 527.066C409.405 531.167 404.415 543.393 407.439 542.89C410.462 542.386 410.741 544.043 408.139 547.523C398.143 560.871 414.079 560.838 416.989 559.464Z" fill="#FCC4AC"/>
<path d="M455.303 484.701C460.631 466.885 443.312 425.501 430.014 414.709C430.014 419.116 429.182 439.506 428.731 466.579C436.363 480.451 417.547 522.652 415.789 526.212C414.025 529.771 429.396 543.076 431.908 537.928C434.421 532.78 449.311 504.734 455.303 484.701Z" fill="#307FE2"/>
<path d="M455.303 484.701C460.631 466.885 443.312 425.501 430.014 414.709C430.014 419.116 429.182 439.506 428.731 466.579C436.363 480.451 417.547 522.652 415.789 526.212C414.025 529.771 429.396 543.076 431.908 537.928C434.421 532.78 449.311 504.734 455.303 484.701Z" fill="url(#paint5_linear_13_743)"/>
<path d="M455.303 484.701C460.631 466.885 443.312 425.501 430.014 414.709C430.014 419.116 429.182 439.506 428.731 466.579C436.363 480.451 417.547 522.652 415.789 526.212C414.025 529.771 429.396 543.076 431.908 537.928C434.421 532.78 449.311 504.734 455.303 484.701Z" fill="#2773D9"/>
<path opacity="0.35" fill-rule="evenodd" clip-rule="evenodd" d="M431.906 426.523C431.187 425.621 430.528 424.794 429.958 424.057L429.601 424.338C430.177 425.084 430.848 425.918 431.573 426.825C433.907 429.747 436.859 433.434 439.354 437.424C442.632 442.658 445.091 448.352 444.402 453.452C443.951 456.745 444.657 460.181 445.81 463.612C446.606 465.989 447.615 468.381 448.607 470.73C449.047 471.767 449.486 472.796 449.896 473.81C451.244 477.138 452.337 480.323 452.515 483.253C452.687 486.169 451.951 488.827 449.629 491.12C445.162 495.541 444.242 499.541 443.357 503.359C443.244 503.857 443.131 504.352 443.006 504.845C442.484 506.975 441.83 509.056 440.423 511.162C439.015 513.267 436.847 515.411 433.278 517.644C431.888 518.513 430.629 520.147 429.554 522.099C428.473 524.056 427.558 526.358 426.875 528.59C426.186 530.823 425.723 532.995 425.545 534.694C425.455 535.543 425.432 536.284 425.497 536.859C425.515 537.04 425.545 537.208 425.586 537.36C423.977 536.431 422.284 535.158 420.769 533.784C419.95 530.01 420.324 525.484 421.732 521.501C423.145 517.49 425.58 514.07 428.829 512.51C431.846 511.063 433.438 509.241 434.293 507.167C435.137 505.107 435.244 502.817 435.321 500.466C435.327 500.37 435.327 500.274 435.333 500.178C435.404 497.904 435.481 495.568 436.17 493.249C436.883 490.84 438.255 488.442 440.981 486.174C443.689 483.924 444.604 481.641 444.432 479.323C444.271 477.031 443.048 474.747 441.599 472.479C441.141 471.762 440.66 471.049 440.185 470.335C439.134 468.769 438.077 467.203 437.263 465.613C436.075 463.307 435.422 461.005 435.998 458.675C438.938 446.785 431.799 439.109 429.554 436.993L429.245 437.326C431.46 439.411 438.439 446.925 435.558 458.564C434.947 461.053 435.659 463.477 436.865 465.824C437.691 467.438 438.772 469.042 439.829 470.619C440.31 471.327 440.779 472.031 441.224 472.727C442.674 474.992 443.832 477.191 443.986 479.357C444.141 481.497 443.321 483.645 440.702 485.822C437.898 488.148 436.479 490.624 435.742 493.118C435.036 495.495 434.958 497.885 434.881 500.146C434.881 500.247 434.875 500.349 434.875 500.451C434.792 502.814 434.685 505.021 433.877 506.992C433.076 508.948 431.567 510.693 428.639 512.098C425.242 513.729 422.741 517.273 421.31 521.348C419.873 525.425 419.48 530.072 420.348 533.955L420.365 534.026L420.419 534.074C422.177 535.677 424.184 537.154 426.038 538.13L426.275 537.742C426.21 537.698 426.139 537.607 426.079 537.446C426.02 537.286 425.972 537.073 425.943 536.809C425.883 536.28 425.901 535.576 425.99 534.743C426.162 533.08 426.62 530.937 427.303 528.726C427.98 526.515 428.882 524.244 429.946 522.322C431.009 520.392 432.22 518.839 433.515 518.032C437.12 515.773 439.342 513.588 440.797 511.417C442.246 509.247 442.917 507.105 443.446 504.956C443.565 504.458 443.683 503.96 443.796 503.459C444.675 499.652 445.572 495.771 449.943 491.446C452.373 489.046 453.139 486.251 452.961 483.225C452.782 480.213 451.66 476.967 450.312 473.638C449.896 472.608 449.456 471.572 449.011 470.531C448.025 468.19 447.021 465.825 446.231 463.465C445.091 460.06 444.408 456.704 444.842 453.514C445.56 448.242 443.018 442.427 439.734 437.179C437.221 433.165 434.246 429.447 431.906 426.523Z" fill="white"/>
<path d="M424.188 505.137C428.916 491.293 433.044 474.416 428.732 466.579C440.313 474.817 431.517 493.248 424.188 505.137Z" fill="#105CC1"/>
<path d="M415.789 526.212C414.025 529.772 429.396 543.077 431.908 537.928C432.104 537.532 432.372 536.999 432.698 536.345C429.016 535.51 420.725 531.793 416.983 523.599C416.407 524.904 415.985 525.808 415.789 526.212Z" fill="#307FE2"/>
<path d="M415.789 526.212C414.025 529.772 429.396 543.077 431.908 537.928C432.104 537.532 432.372 536.999 432.698 536.345C429.016 535.51 420.725 531.793 416.983 523.599C416.407 524.904 415.985 525.808 415.789 526.212Z" fill="url(#paint6_linear_13_743)"/>
<path d="M415.789 526.212C414.025 529.772 429.396 543.077 431.908 537.928C432.104 537.532 432.372 536.999 432.698 536.345C429.016 535.51 420.725 531.793 416.983 523.599C416.407 524.904 415.985 525.808 415.789 526.212Z" fill="#105CC1"/>
<path d="M306.638 361.789H229.784C226.389 361.789 223.637 364.581 223.637 368.025V385.699C223.637 389.142 226.389 391.934 229.784 391.934H292.415L311.586 398.255L306.314 391.934H306.638C310.032 391.934 312.784 389.142 312.784 385.699V368.025C312.784 364.581 310.032 361.789 306.638 361.789Z" fill="#8BBAFA"/>
<path fill-rule="evenodd" clip-rule="evenodd" d="M244.246 379.293C245.835 379.293 247.122 377.987 247.122 376.376C247.122 374.765 245.835 373.458 244.246 373.458C242.658 373.458 241.371 374.765 241.371 376.376C241.371 377.987 242.658 379.293 244.246 379.293ZM260.542 379.293C262.13 379.293 263.418 377.987 263.418 376.376C263.418 374.765 262.13 373.458 260.542 373.458C258.954 373.458 257.666 374.765 257.666 376.376C257.666 377.987 258.954 379.293 260.542 379.293ZM279.234 376.376C279.234 377.987 277.947 379.293 276.359 379.293C274.77 379.293 273.483 377.987 273.483 376.376C273.483 374.765 274.77 373.458 276.359 373.458C277.947 373.458 279.234 374.765 279.234 376.376ZM292.175 379.293C293.763 379.293 295.051 377.987 295.051 376.376C295.051 374.765 293.763 373.458 292.175 373.458C290.587 373.458 289.299 374.765 289.299 376.376C289.299 377.987 290.587 379.293 292.175 379.293Z" fill="white"/>
<defs>
<filter id="filter0_d_13_743" x="0" y="0.363037" width="311.318" height="311.318" filterUnits="userSpaceOnUse" color-interpolation-filters="sRGB">
<feFlood flood-opacity="0" result="BackgroundImageFix"/>
<feColorMatrix in="SourceAlpha" type="matrix" values="0 0 0 0 0 0 0 0 0 0 0 0 0 0 0 0 0 0 127 0" result="hardAlpha"/>
<feOffset dy="-17"/>
<feGaussianBlur stdDeviation="29"/>
<feColorMatrix type="matrix" values="0 0 0 0 0.696557 0 0 0 0 0.836898 0 0 0 0 0.818186 0 0 0 0.05 0"/>
<feBlend mode="normal" in2="BackgroundImageFix" result="effect1_dropShadow_13_743"/>
<feBlend mode="normal" in="SourceGraphic" in2="effect1_dropShadow_13_743" result="shape"/>
</filter>
<linearGradient id="paint0_linear_13_743" x1="544.728" y1="102.418" x2="548.711" y2="126.63" gradientUnits="userSpaceOnUse">
<stop stop-color="#F4AF8A"/>
<stop offset="1" stop-color="#F9C0A1" stop-opacity="0"/>
</linearGradient>
<linearGradient id="paint1_linear_13_743" x1="380.268" y1="392.989" x2="390.018" y2="397.898" gradientUnits="userSpaceOnUse">
<stop stop-color="#F3AD8F"/>
<stop offset="1" stop-color="#FCC4AC" stop-opacity="0"/>
</linearGradient>
<linearGradient id="paint2_linear_13_743" x1="415.613" y1="524.525" x2="391.226" y2="512.229" gradientUnits="userSpaceOnUse">
<stop stop-color="#026CF0"/>
<stop offset="1" stop-color="#307FE2" stop-opacity="0"/>
</linearGradient>
<linearGradient id="paint3_linear_13_743" x1="359.041" y1="371.85" x2="378.143" y2="373.957" gradientUnits="userSpaceOnUse">
<stop stop-color="#FEA568"/>
<stop offset="1" stop-color="#F4B88E"/>
</linearGradient>
<linearGradient id="paint4_linear_13_743" x1="323.668" y1="487.936" x2="324.958" y2="477.404" gradientUnits="userSpaceOnUse">
<stop stop-color="#0154F7"/>
<stop offset="1" stop-color="#307FE2" stop-opacity="0"/>
</linearGradient>
<linearGradient id="paint5_linear_13_743" x1="454.318" y1="488.348" x2="445.633" y2="484.734" gradientUnits="userSpaceOnUse">
<stop stop-color="#0071FF"/>
<stop offset="1" stop-color="#307FE2" stop-opacity="0"/>
</linearGradient>
<linearGradient id="paint6_linear_13_743" x1="454.318" y1="488.348" x2="445.633" y2="484.734" gradientUnits="userSpaceOnUse">
<stop stop-color="#0071FF"/>
<stop offset="1" stop-color="#307FE2" stop-opacity="0"/>
</linearGradient>
</defs>
</svg>
