<svg width="168" height="34" viewBox="0 0 168 34" fill="none" xmlns="http://www.w3.org/2000/svg">
<path d="M59.92 8.248V25H56.56V14.104L52.072 25H49.528L45.016 14.104V25H41.656V8.248H45.472L50.8 20.704L56.128 8.248H59.92ZM75.6019 18.064C75.6019 18.544 75.5699 18.976 75.5059 19.36H65.7859C65.8659 20.32 66.2019 21.072 66.7939 21.616C67.3859 22.16 68.1139 22.432 68.9779 22.432C70.2259 22.432 71.1139 21.896 71.6419 20.824H75.2659C74.8819 22.104 74.1459 23.16 73.0579 23.992C71.9699 24.808 70.6339 25.216 69.0499 25.216C67.7699 25.216 66.6179 24.936 65.5939 24.376C64.5859 23.8 63.7939 22.992 63.2179 21.952C62.6579 20.912 62.3779 19.712 62.3779 18.352C62.3779 16.976 62.6579 15.768 63.2179 14.728C63.7779 13.688 64.5619 12.888 65.5699 12.328C66.5779 11.768 67.7379 11.488 69.0499 11.488C70.3139 11.488 71.4419 11.76 72.4339 12.304C73.4419 12.848 74.2179 13.624 74.7619 14.632C75.3219 15.624 75.6019 16.768 75.6019 18.064ZM72.1219 17.104C72.1059 16.24 71.7939 15.552 71.1859 15.04C70.5779 14.512 69.8339 14.248 68.9539 14.248C68.1219 14.248 67.4179 14.504 66.8419 15.016C66.2819 15.512 65.9379 16.208 65.8099 17.104H72.1219ZM85.4224 11.512C87.0064 11.512 88.2864 12.016 89.2624 13.024C90.2384 14.016 90.7264 15.408 90.7264 17.2V25H87.3664V17.656C87.3664 16.6 87.1024 15.792 86.5744 15.232C86.0464 14.656 85.3264 14.368 84.4144 14.368C83.4864 14.368 82.7504 14.656 82.2064 15.232C81.6784 15.792 81.4144 16.6 81.4144 17.656V25H78.0544V11.704H81.4144V13.36C81.8624 12.784 82.4304 12.336 83.1184 12.016C83.8224 11.68 84.5904 11.512 85.4224 11.512ZM97.8336 14.464V20.896C97.8336 21.344 97.9376 21.672 98.1456 21.88C98.3696 22.072 98.7376 22.168 99.2496 22.168H100.81V25H98.6976C95.8656 25 94.4496 23.624 94.4496 20.872V14.464H92.8656V11.704H94.4496V8.416H97.8336V11.704H100.81V14.464H97.8336ZM102.362 18.304C102.362 16.96 102.626 15.768 103.154 14.728C103.698 13.688 104.426 12.888 105.338 12.328C106.266 11.768 107.298 11.488 108.434 11.488C109.426 11.488 110.29 11.688 111.026 12.088C111.778 12.488 112.378 12.992 112.826 13.6V11.704H116.21V25H112.826V23.056C112.394 23.68 111.794 24.2 111.026 24.616C110.274 25.016 109.402 25.216 108.41 25.216C107.29 25.216 106.266 24.928 105.338 24.352C104.426 23.776 103.698 22.968 103.154 21.928C102.626 20.872 102.362 19.664 102.362 18.304ZM112.826 18.352C112.826 17.536 112.666 16.84 112.346 16.264C112.026 15.672 111.594 15.224 111.05 14.92C110.506 14.6 109.922 14.44 109.298 14.44C108.674 14.44 108.098 14.592 107.57 14.896C107.042 15.2 106.61 15.648 106.274 16.24C105.954 16.816 105.794 17.504 105.794 18.304C105.794 19.104 105.954 19.808 106.274 20.416C106.61 21.008 107.042 21.464 107.57 21.784C108.114 22.104 108.69 22.264 109.298 22.264C109.922 22.264 110.506 22.112 111.05 21.808C111.594 21.488 112.026 21.04 112.346 20.464C112.666 19.872 112.826 19.168 112.826 18.352ZM122.852 7.24V25H119.492V7.24H122.852ZM129.532 22.336H135.052V25H126.172V8.248H129.532V22.336ZM143.091 25.216C141.811 25.216 140.659 24.936 139.635 24.376C138.611 23.8 137.803 22.992 137.211 21.952C136.635 20.912 136.347 19.712 136.347 18.352C136.347 16.992 136.643 15.792 137.235 14.752C137.843 13.712 138.667 12.912 139.707 12.352C140.747 11.776 141.907 11.488 143.187 11.488C144.467 11.488 145.627 11.776 146.667 12.352C147.707 12.912 148.523 13.712 149.115 14.752C149.723 15.792 150.027 16.992 150.027 18.352C150.027 19.712 149.715 20.912 149.091 21.952C148.483 22.992 147.651 23.8 146.595 24.376C145.555 24.936 144.387 25.216 143.091 25.216ZM143.091 22.288C143.699 22.288 144.267 22.144 144.795 21.856C145.339 21.552 145.771 21.104 146.091 20.512C146.411 19.92 146.571 19.2 146.571 18.352C146.571 17.088 146.235 16.12 145.563 15.448C144.907 14.76 144.099 14.416 143.139 14.416C142.179 14.416 141.371 14.76 140.715 15.448C140.075 16.12 139.755 17.088 139.755 18.352C139.755 19.616 140.067 20.592 140.691 21.28C141.331 21.952 142.131 22.288 143.091 22.288ZM157.7 11.488C158.692 11.488 159.564 11.688 160.316 12.088C161.068 12.472 161.66 12.976 162.092 13.6V11.704H165.476V25.096C165.476 26.328 165.228 27.424 164.732 28.384C164.236 29.36 163.492 30.128 162.5 30.688C161.508 31.264 160.308 31.552 158.9 31.552C157.012 31.552 155.46 31.112 154.244 30.232C153.044 29.352 152.364 28.152 152.204 26.632H155.54C155.716 27.24 156.092 27.72 156.668 28.072C157.26 28.44 157.972 28.624 158.804 28.624C159.78 28.624 160.572 28.328 161.18 27.736C161.788 27.16 162.092 26.28 162.092 25.096V23.032C161.66 23.656 161.06 24.176 160.292 24.592C159.54 25.008 158.676 25.216 157.7 25.216C156.58 25.216 155.556 24.928 154.628 24.352C153.7 23.776 152.964 22.968 152.42 21.928C151.892 20.872 151.628 19.664 151.628 18.304C151.628 16.96 151.892 15.768 152.42 14.728C152.964 13.688 153.692 12.888 154.604 12.328C155.532 11.768 156.564 11.488 157.7 11.488ZM162.092 18.352C162.092 17.536 161.932 16.84 161.612 16.264C161.292 15.672 160.86 15.224 160.316 14.92C159.772 14.6 159.188 14.44 158.564 14.44C157.94 14.44 157.364 14.592 156.836 14.896C156.308 15.2 155.876 15.648 155.54 16.24C155.22 16.816 155.06 17.504 155.06 18.304C155.06 19.104 155.22 19.808 155.54 20.416C155.876 21.008 156.308 21.464 156.836 21.784C157.38 22.104 157.956 22.264 158.564 22.264C159.188 22.264 159.772 22.112 160.316 21.808C160.86 21.488 161.292 21.04 161.612 20.464C161.932 19.872 162.092 19.168 162.092 18.352Z" fill="#2B2B39"/>
<path d="M34.0013 16.9998C34.0013 26.3887 26.3901 33.9998 17.0013 33.9998C13.0609 33.9998 9.43369 32.6592 6.55078 30.4093L24.7833 12.1768C25.6535 13.5773 26.1551 15.2292 26.1551 16.9998C26.1551 21.1925 23.3363 24.7269 19.4905 25.8111C18.9167 25.0652 18.0151 24.5844 17.0013 24.5844C15.2679 24.5844 13.8628 25.9896 13.8628 27.7229C13.8628 29.4562 15.2679 30.8613 17.0013 30.8613C18.2989 30.8613 19.4126 30.0738 19.8905 28.9507C25.2853 27.6511 29.2936 22.7935 29.2936 16.9998C29.2936 14.3617 28.4612 11.9159 27.0465 9.91356L30.4107 6.54932C32.6607 9.43223 34.0013 13.0595 34.0013 16.9998Z" fill="#FFAF2E"/>
<path d="M6.95477 24.0862L3.59053 27.4505C1.34058 24.5676 0 20.9403 0 17C0 7.61116 7.61116 0 17 0C20.9403 0 24.5676 1.34058 27.4505 3.59053L9.218 21.823C8.34783 20.4225 7.84615 18.7708 7.84615 17C7.84615 12.8073 10.6649 9.27294 14.5108 8.18866C15.0846 8.93463 15.9861 9.41538 17 9.41538C18.7333 9.41538 20.1385 8.01024 20.1385 6.27692C20.1385 4.54359 18.7333 3.13845 17 3.13845C15.7024 3.13845 14.5887 3.92597 14.1108 5.04914C8.71598 6.34871 4.70768 11.2063 4.70768 17C4.70768 19.6379 5.54001 22.0838 6.95477 24.0862Z" fill="#F04148"/>
<circle cx="16.9991" cy="6.27693" r="1.30769" fill="#F04148"/>
<circle cx="16.9991" cy="27.7232" r="1.30769" fill="#FFAF2E"/>
</svg>
